# xmcd
#
# Track frame offsets: 
#        150
#        19862
#        52535
#        68077
#        88911
#        110787
#        132197
#        175872
#        189989
#        211931
#        227030
#        248015
#
# Disc length: 3770 seconds
#
# Revision: 0
# Processed by: cddbd v1.5.2PL0 Copyright (c) Steve Scherf et al.
# Submitted via: ExactAudioCopyFreeDBPlugin 1.0
#
DISCID=9a0eb80c
DTITLE=Windy City Rev Ups - Live at the MAchine Shop
DYEAR=2014
DGENRE=Blues
TTITLE0=Woke Up This Morning
TTITLE1=Voodoo Child
TTITLE2=Alley Cat Blues
TTITLE3=Love Reaction
TTITLE4=Swing Out Chicago
TTITLE5=Messin With The Kid
TTITLE6=Stormy Monday
TTITLE7=I'm Tore Down
TTITLE8=One Way Out
TTITLE9=Follow Your Heart
TTITLE10=You Can'tt Always Get Waht You Want
TTITLE11=All Alnog The Watchtower
EXTD=
EXTT0=
EXTT1=
EXTT2=
EXTT3=
EXTT4=
EXTT5=
EXTT6=
EXTT7=
EXTT8=
EXTT9=
EXTT10=
EXTT11=
PLAYORDER=
